<?xml version="1.0" encoding="UTF-8" standalone="no"?>
<!-- Created with Inkscape (http://www.inkscape.org/) -->

<svg
   width="185"
   height="60"
   viewBox="0 0 48.947919 15.875"
   version="1.1"
   id="svg5756"
   inkscape:version="1.2 (dc2aedaf03, 2022-05-15)"
   sodipodi:docname="distruccion.svg"
   xmlns:inkscape="http://www.inkscape.org/namespaces/inkscape"
   xmlns:sodipodi="http://sodipodi.sourceforge.net/DTD/sodipodi-0.dtd"
   xmlns="http://www.w3.org/2000/svg"
   xmlns:svg="http://www.w3.org/2000/svg">
  <sodipodi:namedview
     id="namedview5758"
     pagecolor="#ffffff"
     bordercolor="#666666"
     borderopacity="1.0"
     inkscape:showpageshadow="2"
     inkscape:pageopacity="0.0"
     inkscape:pagecheckerboard="0"
     inkscape:deskcolor="#d1d1d1"
     inkscape:document-units="mm"
     showgrid="false"
     inkscape:zoom="2.3786088"
     inkscape:cx="66.004969"
     inkscape:cy="24.384001"
     inkscape:window-width="1920"
     inkscape:window-height="1017"
     inkscape:window-x="-8"
     inkscape:window-y="1192"
     inkscape:window-maximized="1"
     inkscape:current-layer="g5704" />
  <defs
     id="defs5753" />
  <g
     inkscape:label="container"
     inkscape:groupmode="layer"
     id="layer1"
     style="display:inline">
    <g
       id="g5704"
       transform="matrix(0.30000001,0,0,0.30000001,-7.3454263,-7.210953)"
       style="display:inline"
       inkscape:label="group">
      <g
         id="g764"
         transform="matrix(1.0413052,0,0,1.0413052,-1.0113482,0.07632031)"
         style="display:inline"
         inkscape:export-filename=".\g764.svg"
         inkscape:export-xdpi="84.67"
         inkscape:export-ydpi="84.67"
         inkscape:label="logo">
        <path
           d="M 55.890089,73.827399 H 24.484754 V 23.009766 h 31.405335 z"
           style="display:inline;fill:#173c9e;fill-opacity:1;fill-rule:nonzero;stroke:none;stroke-width:0.352778"
           id="path14" />
        <g
           id="g16"
           transform="matrix(0.35277777,0,0,-0.35277777,40.187351,61.576379)">
          <path
             d="M 0,0 -16.363,16.351 0,32.663 v 7.605 L -23.984,16.351 0,-7.617 Z"
             style="fill:#ffffff;fill-opacity:1;fill-rule:nonzero;stroke:none"
             id="path18" />
        </g>
        <g
           id="g20"
           transform="matrix(0.35277777,0,0,-0.35277777,40.187351,35.260676)"
           style="display:inline">
          <path
             d="M 3.3070869e-8,0 16.363,-16.351 3.3070869e-8,-32.663 v -7.605 L 23.984,-16.351 3.3070869e-8,7.617 Z"
             style="fill:#ffffff;fill-opacity:1;fill-rule:nonzero;stroke:none"
             id="path22" />
        </g>
      </g>
      <g
         id="g2254"
         transform="matrix(0.96340027,0,0,1.1327473,20.811554,-202.97723)"
         inkscape:export-filename="g2254.svg"
         inkscape:export-xdpi="84.67"
         inkscape:export-ydpi="84.67"
         inkscape:label="texto">
        <path
           id="path2245"
           style="font-size:25.2209px;line-height:1.25;font-family:Questrial;-inkscape-font-specification:'Questrial, Normal';fill:#302747;fill-opacity:1;stroke-width:0.631"
           d="m 147.21889,214.06476 c -0.61162,0.01 -1.42726,0.51743 -1.9734,0.99954 -0.83221,0.73464 -1.53839,2.11953 -1.53839,2.11953 l 0.41732,0.21624 c 0,0 4.22827,-1.86531 3.81968,-2.86496 -0.14045,-0.34363 -0.40484,-0.47537 -0.72521,-0.47035 z m -11.88118,2.03057 a 1.2015277,1.0218979 0 0 0 -1.20153,1.02189 1.2015277,1.0218979 0 0 0 1.20153,1.0219 1.2015277,1.0218979 0 0 0 1.20153,-1.0219 1.2015277,1.0218979 0 0 0 -1.20153,-1.02189 z m -9.20992,2.651 5.3e-4,9.1e-4 c -0.23643,0 -0.46733,0.0103 -0.69195,0.031 -0.0749,0.007 -0.14851,0.015 -0.22207,0.0242 -0.88273,0.11034 -1.67141,0.38619 -2.36497,0.82756 -0.92477,0.57167 -1.64744,1.35334 -2.16865,2.34534 -0.4729,0.91426 -0.72462,1.93223 -0.75417,3.05338 -0.002,0.0747 -0.003,0.15016 -0.003,0.22582 0,0.21966 0.009,0.43511 0.0268,0.64781 l -0.49778,0.60356 0.0858,0.31478 c 0.12601,0.4633 0.30099,0.90743 0.51547,1.33394 v 0.0196 l 0.0274,0.0547 c 0.5638,1.07307 1.36306,1.93712 2.3698,2.56068 1.23916,0.6616 2.28454,0.96308 3.44581,0.96578 1.16127,0.003 2.04717,-0.15229 2.81715,-0.46715 0.001,-4.4e-4 0.002,-8.2e-4 0.003,-0.002 0.001,-3.9e-4 0.002,-6.4e-4 0.003,-9.2e-4 h 5.4e-4 c 0.52044,-0.20113 1.00714,-0.46509 1.45363,-0.79607 l 0.002,-0.002 c 1.14711,-0.83901 1.94466,-1.95562 2.34781,-3.29334 l 0.20543,-0.6916 h -3.18994 l -0.12498,0.32025 c -0.24808,0.62748 -0.6326,1.11821 -1.18919,1.51369 l -0.006,0.004 c -0.38948,0.28421 -0.83544,0.46397 -1.36996,0.53604 -0.0891,0.012 -0.1805,0.0214 -0.27464,0.0274 -0.0941,0.006 -0.19122,0.009 -0.29072,0.009 -0.83606,0 -1.52747,-0.19118 -2.12091,-0.56751 -0.6096,-0.38657 -1.06021,-0.88215 -1.38659,-1.52008 h -0.002 c -0.0199,-0.0389 -0.0397,-0.0993 -0.0746,-0.17564 l -0.0681,-0.14689 -0.78152,-0.61132 c -0.0236,-0.20897 -0.0354,-0.42166 -0.0354,-0.63823 0,-0.0546 9e-4,-0.10926 0.002,-0.16332 0.0217,-0.81081 0.20624,-1.55484 0.55302,-2.23266 0.36991,-0.72298 0.89945,-1.3028 1.58881,-1.73997 0.68938,-0.43716 1.49652,-0.65602 2.42129,-0.65602 0.89113,0 1.64739,0.22669 2.26949,0.68066 0.63893,0.45398 1.10182,1.04298 1.38766,1.76597 h 2.0426 c -0.36991,-1.22741 -1.08471,-2.22793 -2.14398,-3.00137 -1.04245,-0.77344 -2.31144,-1.16013 -3.80787,-1.16013 z m 18.94229,0 -10e-4,9.1e-4 c -0.2396,0 -0.4733,0.0103 -0.70107,0.031 -0.0759,0.007 -0.15121,0.015 -0.22582,0.0242 -0.89534,0.11034 -1.69635,0.38619 -2.40252,0.82756 -0.94158,0.57167 -1.66425,1.35334 -2.16865,2.34534 -0.50442,0.97521 -0.75686,2.06861 -0.75686,3.2792 0,0.22001 0.009,0.43568 0.0268,0.64872 l -0.49509,0.60083 0.0858,0.3166 c 0.1324,0.48475 0.31027,0.95525 0.53855,1.4042 0.54851,1.07879 1.34839,1.95312 2.37301,2.59352 l 0.006,0.004 h 0.002 c 0.96385,0.58481 2.17179,0.93151 3.33102,0.92883 1.15923,-0.003 2.1422,-0.13245 2.94482,-0.45484 0.002,-9.1e-4 0.005,-0.002 0.007,-0.003 0.002,-8.7e-4 0.004,-0.002 0.007,-0.003 h 5.4e-4 c 0.33528,-0.13058 0.65647,-0.28589 0.95854,-0.47263 0.25616,-0.16009 0.49844,-0.33468 0.72628,-0.52372 0.6835,-0.5671 1.23748,-1.26205 1.64888,-2.07117 0.22819,-0.44875 0.40502,-0.9174 0.53747,-1.40237 l 0.088,-0.31478 -0.30467,-0.59854 c 0.0174,-0.21451 0.0284,-0.43175 0.0284,-0.65328 0,-1.2106 -0.25189,-2.30354 -0.75631,-3.27875 -0.50441,-0.99201 -1.22707,-1.77413 -2.16865,-2.3458 -0.92476,-0.58848 -2.03475,-0.8823 -3.32942,-0.8823 z m -33.21097,4.6e-4 v 4.5e-4 c -1.26104,0 -2.35422,0.29427 -3.27899,0.88276 -0.92476,0.57167 -1.64795,1.35334 -2.16919,2.34534 -0.50441,0.97521 -0.75685,2.06861 -0.75685,3.2792 0,0.21208 0.008,0.42078 0.0241,0.62637 l -0.49241,0.62409 0.0858,0.31615 c 0.12575,0.46042 0.1159,0.6206 0.51225,1.33211 0.39635,0.71152 1.4355,2.0897 2.37141,2.6469 1.00711,0.58192 2.32342,0.91145 3.34443,0.95256 0.003,1e-4 0.006,-9e-5 0.009,0 0.0384,0.002 0.0766,0.004 0.11533,0.005 0.0271,7.8e-4 0.0548,5.1e-4 0.0821,9.1e-4 0.003,6e-5 0.007,-5e-5 0.0102,0 0.003,2e-5 0.006,4.4e-4 0.009,4.5e-4 0.0125,6e-5 0.0244,9.2e-4 0.037,9.2e-4 0.006,0 0.011,-4.5e-4 0.0166,-4.6e-4 0.0268,2.6e-4 0.053,9.1e-4 0.0799,9.1e-4 0.9438,0 1.79701,-0.15356 2.56022,-0.46122 0.53258,-0.2021 1.03025,-0.46862 1.48582,-0.80611 l 0.002,-0.002 c 1.1483,-0.83915 1.94655,-1.95471 2.34996,-3.29334 l 0.20866,-0.69298 h -3.18942 l -0.13088,0.32208 c -0.24247,0.61332 -0.62393,1.08806 -1.15969,1.47856 l -0.0397,0.0411 c -0.3238,0.23529 -0.68675,0.39881 -1.10766,0.48814 -0.16836,0.0357 -0.34584,0.0597 -0.53371,0.0716 -0.0939,0.006 -0.19095,0.009 -0.29019,0.009 -0.8366,0 -1.52398,-0.19044 -2.11716,-0.56661 -0.60793,-0.38552 -1.0604,-0.88003 -1.38658,-1.51551 l -0.002,-0.002 c -0.0212,-0.0427 -0.0424,-0.10258 -0.0762,-0.17792 l -0.0665,-0.14826 -0.78582,-0.62272 c -0.0228,-0.20578 -0.0338,-0.41505 -0.0338,-0.62819 0,-0.0546 -1.6e-4,-0.10927 0.002,-0.16333 0.0217,-0.8108 0.20624,-1.5553 0.55303,-2.23312 0.36991,-0.72299 0.89942,-1.30279 1.5888,-1.73996 0.68936,-0.43716 1.49654,-0.65557 2.42129,-0.65557 0.89114,0 1.64738,0.22624 2.2695,0.68021 0.63893,0.45397 1.10128,1.04297 1.38712,1.76596 h 2.04313 c -0.3699,-1.22741 -1.0847,-2.22793 -2.14397,-3.00137 -1.04246,-0.77344 -2.31145,-1.16012 -3.80788,-1.16012 z m -20.788576,4.5e-4 c -0.773438,0 -1.445718,0.13472 -2.017386,0.40374 -0.55486,0.25221 -1.017221,0.5635 -1.387121,0.9334 -0.369909,0.36991 -0.655938,0.73959 -0.857698,1.10949 -0.184956,0.35309 -0.311441,0.63861 -0.378695,0.8572 v -3.10219 H 84.5383 v 6.92199 l -0.662986,0.63413 v 0.24954 4.80475 H 86.89898 V 226.505 l -0.465055,-0.66059 c 0.02005,-0.86219 0.193918,-1.67282 0.525668,-2.43111 0.36991,-0.82388 0.891037,-1.48828 1.563595,-1.9927 0.689359,-0.52123 1.504926,-0.78193 2.446504,-0.78193 h 0.226895 v -1.89143 z m 68.828226,0 c -1.02564,0 -1.86585,0.21013 -2.5216,0.63048 -0.65574,0.42034 -1.21046,0.93304 -1.66444,1.53832 v -1.96716 h -1.89187 v 6.9521 l -0.66137,0.60493 v 0.25046 4.80474 h 3.02152 v -5.0552 l -0.46828,-0.58759 v -1.62226 c 0,-0.75662 0.16794,-1.42103 0.50422,-1.9927 0.35309,-0.58849 0.81545,-1.04232 1.38712,-1.36177 0.57168,-0.31947 1.21036,-0.47902 1.91654,-0.47902 1.04245,0 1.89107,0.35266 2.54681,1.05885 0.65574,0.68935 0.98429,1.60575 0.98429,2.74909 v 1.63139 l -0.66299,0.60401 v 0.25046 4.80474 h 3.02098 v -5.0552 l -0.46666,-0.58896 v -1.69662 c 0,-1.19379 -0.24351,-2.19431 -0.73111,-3.00137 -0.47079,-0.82389 -1.09324,-1.43771 -1.86666,-1.84124 -0.75663,-0.42035 -1.57217,-0.63048 -2.4465,-0.63048 z m -65.421573,0.20073 -1.892406,9.1e-4 v 6.93796 l -0.630266,0.61816 0.0354,0.28102 c 0.10486,0.83092 0.337825,1.58377 0.712335,2.24042 l 0.0021,0.002 c 3e-4,5.2e-4 -3e-4,8.3e-4 0,0.002 l 0.0038,0.006 0.0038,0.006 c 0.527899,0.87378 1.224579,1.56246 2.075317,2.03148 0.674771,0.34601 1.067077,0.50918 2.072099,0.64416 0.11092,0.0141 0.222521,0.0248 0.334711,0.0319 0.0906,0.006 0.182142,0.008 0.273562,0.009 h 5.37e-4 c 0.0216,2.7e-4 0.04277,0.002 0.06437,0.002 0.0105,0 0.02061,-9.1e-4 0.03111,-9.1e-4 0.002,-1e-5 0.0034,0 0.0054,0 0.0201,2.2e-4 0.03988,9.1e-4 0.06008,9.1e-4 0.0641,0 0.127761,-3.8e-4 0.190421,-0.002 0.0627,-0.002 0.124383,-0.004 0.185593,-0.008 0.523069,-0.0281 0.993154,-0.11573 1.410722,-0.26368 8.7e-4,-3.1e-4 0.0022,-0.001 0.0032,-0.001 0.003,-8.8e-4 0.0045,-0.002 0.0075,-0.003 0.003,-9.1e-4 0.0056,-0.002 0.0086,-0.003 0.031,-0.0112 0.06132,-0.0229 0.09172,-0.0347 10e-4,-5.3e-4 0.0028,-8.3e-4 0.0038,-0.002 0.29554,-0.1064 0.573568,-0.238 0.829268,-0.40192 0.21952,-0.14071 0.39065,-0.30939 0.55518,-0.48175 0.0821,-0.0713 0.16184,-0.14433 0.23976,-0.21943 v 1.21898 h 3.02152 v -5.0552 l -0.46827,-0.64827 v -6.90785 h -1.89187 v 6.91789 l -0.75846,0.63823 -0.0553,0.17563 c -0.0725,0.23388 -0.16627,0.45059 -0.28697,0.64873 l 0.006,-0.006 -0.0118,0.0192 -0.006,0.01 -0.002,0.002 -0.002,0.002 -0.002,0.004 c -0.28953,0.4891 -0.66549,0.86569 -1.15594,1.15419 -0.482819,0.26752 -1.013366,0.40055 -1.630644,0.40055 -0.899319,0 -1.561488,-0.27382 -2.134858,-0.85949 -2e-4,-2.2e-4 -0.0021,2.3e-4 -0.0021,0 -0.348349,-0.37785 -0.58491,-0.82142 -0.71448,-1.35949 l -0.0472,-0.19115 -0.534787,-0.60994 z m 39.948653,9.1e-4 v 6.9115 l -0.66245,0.64553 v 0.25 4.8052 h 3.02313 v -5.0552 l -0.46935,-0.65055 v -6.90648 z m 10.6421,1.51369 h 5.4e-4 c 0.94157,0 1.7314,0.21841 2.37033,0.65557 0.65573,0.43717 1.15222,1.01698 1.4885,1.73996 0.33628,0.723 0.50421,1.52213 0.50421,2.39644 0,0.21783 -0.011,0.43173 -0.0327,0.64188 l -0.9462,0.60949 0.85072,-4.6e-4 v 4.6e-4 h -0.85072 l -0.0628,0.15648 c -0.0316,0.0776 -0.0513,0.13938 -0.0724,0.18567 -0.21576,0.46316 -0.50381,0.84436 -0.86575,1.16515 -0.12064,0.10692 -0.24894,0.20724 -0.3862,0.30155 -3.6e-4,2.5e-4 -0.002,-2.4e-4 -0.002,0 l -0.0488,0.047 c -0.5314,0.3616 -1.19149,0.55246 -2.04313,0.55246 -0.83655,0 -1.50242,-0.18898 -2.05655,-0.55839 -0.57236,-0.38158 -0.99158,-0.86991 -1.28735,-1.50411 v -0.002 c -0.0207,-0.0459 -0.0405,-0.10869 -0.0724,-0.18705 l -0.0638,-0.15693 -0.75417,-0.60949 c -0.0217,-0.20999 -0.0327,-0.42422 -0.0327,-0.64188 0,-0.0546 0.001,-0.10926 0.002,-0.16332 0.0197,-0.81081 0.18682,-1.5553 0.50207,-2.23312 0.33628,-0.72298 0.83276,-1.30279 1.4885,-1.73996 0.65575,-0.43716 1.4461,-0.65557 2.37087,-0.65557 z" />
        <path
           id="path2247"
           style="font-size:25.2209px;line-height:1.25;font-family:Questrial;-inkscape-font-specification:'Questrial, Normal';fill:#302747;fill-opacity:1;stroke-width:0.631"
           d="m 53.819422,213.90463 v 7.08759 c -0.02943,-0.0431 -0.05958,-0.0858 -0.09012,-0.12773 -0.458113,-0.62954 -1.041999,-1.13356 -1.751334,-1.51186 -0.739809,-0.40354 -1.630403,-0.60539 -2.672863,-0.60539 -1.22741,0 -2.304342,0.29427 -3.229105,0.88276 -0.907948,0.57167 -1.613815,1.35334 -2.118229,2.34534 -0.504418,0.97521 -0.756319,2.06861 -0.756319,3.2792 0,0.21016 0.0083,0.41665 0.02414,0.62044 h -5.36e-4 l -0.491876,0.63002 0.08582,0.31615 c 0.132396,0.48476 0.310791,0.95387 0.539078,1.40283 0.542814,1.06755 1.314923,1.9349 2.295776,2.57527 l 0.007,0.006 0.0118,0.006 0.0097,0.008 c 0.969218,0.59914 2.092478,0.90607 3.329948,0.93568 0.0045,1e-4 0.0094,8.1e-4 0.01395,9.1e-4 0.03058,0.001 0.06095,0.002 0.09172,0.003 0.0027,6e-5 0.0052,-7e-5 0.008,0 0.02744,2.7e-4 0.05452,0.003 0.08207,0.003 0.01153,0 0.02228,-9.1e-4 0.03379,-9.1e-4 0.0014,-1e-5 0.0029,0 0.0043,0 0.01971,1.5e-4 0.03921,9.1e-4 0.059,9.1e-4 0.799028,0 1.508273,-0.11922 2.129494,-0.35629 6.58e-4,-2.5e-4 0.0014,-2.1e-4 0.0021,-4.6e-4 0.247213,-0.0885 0.484429,-0.19232 0.710189,-0.31524 0.16091,-0.0858 0.296659,-0.18902 0.424289,-0.2979 0.02481,-0.0175 0.05014,-0.0351 0.07456,-0.0529 0.181127,-0.13235 0.351118,-0.27529 0.511186,-0.42746 v 1.24863 h 3.02152 v -5.05383 -4.6e-4 h -5.36e-4 l -0.467201,-0.66013 v -11.94069 z m 6.110626,2.1907 a 1.2015277,1.0218979 0 0 0 -1.201528,1.02189 1.2015277,1.0218979 0 0 0 1.201528,1.0219 1.2015277,1.0218979 0 0 0 1.201528,-1.0219 1.2015277,1.0218979 0 0 0 -1.201528,-1.02189 z m 8.618279,2.65191 c -1.630944,0 -2.866878,0.3191 -3.707571,0.95803 -0.823879,0.62212 -1.235857,1.50539 -1.235857,2.64872 0,0.77344 0.202058,1.38728 0.605591,1.84125 0.403533,0.43716 0.924132,0.78154 1.563059,1.03375 0.638926,0.23539 1.311742,0.42851 2.017923,0.57984 0.722996,0.15133 1.404205,0.31133 2.043133,0.47947 0.305519,0.0724 0.58401,0.16011 0.835706,0.26323 l 0.416243,0.38686 c 0.182666,0.16973 0.253717,0.32927 0.253716,0.65009 0,0.31927 -0.06942,0.50312 -0.210804,0.66469 -0.1261,0.14412 -0.273528,0.2562 -0.450037,0.34717 -0.05884,0.0303 -0.121142,0.0584 -0.186665,0.0844 h -0.03701 l -0.03111,0.0292 c -0.282061,0.10958 -0.575878,0.18951 -0.888808,0.23221 -0.352408,0.0481 -0.642636,0.0703 -0.857162,0.0703 -0.746986,0 -1.319855,-0.11415 -1.71915,-0.29881 l -0.0021,-0.002 c -0.426695,-0.21474 -0.710947,-0.46265 -0.898464,-0.74635 -0.195586,-0.33978 -0.311474,-0.66958 -0.35134,-1.00182 v -0.002 L 65.6513,226.5047 h -3.074087 l 0.01877,0.26734 0.01985,0.30109 c 0.05404,0.79258 0.331737,1.53364 0.757928,2.21852 0.434892,0.68853 1.357208,1.47053 2.080145,1.83167 l 0.0059,0.004 h 0.0038 c 0.676216,0.32348 1.445296,0.51793 2.302749,0.59489 0.142908,0.0128 0.288289,0.0224 0.43609,0.0287 0.09797,0.004 0.198669,0.005 0.298773,0.006 0.02249,5.6e-4 0.04495,8.2e-4 0.06759,0.002 0.02837,2.2e-4 0.05568,0.002 0.08421,0.002 h 0.09709 0.469347 v -0.011 c 0.502054,-0.0219 0.969145,-0.0787 1.399458,-0.17245 0.04013,-0.009 0.08011,-0.0175 0.119616,-0.0269 0.42815,-0.10143 0.819307,-0.23951 1.174172,-0.41423 0.28309,-0.12186 0.549695,-0.26486 0.794939,-0.43431 1.080412,-0.75243 1.656392,-1.91353 1.656392,-3.28924 0,-0.24323 -0.0191,-0.47499 -0.05471,-0.69708 l -0.03326,-0.21076 -1.209038,-0.62683 c -0.28385,-0.27656 -0.613947,-0.51021 -0.993942,-0.69753 -0.03718,-0.0183 -0.07455,-0.0363 -0.112643,-0.0538 -0.07619,-0.0349 -0.154003,-0.0684 -0.233869,-0.0999 -0.638928,-0.25219 -1.320674,-0.44533 -2.04367,-0.57984 -0.706183,-0.15133 -1.378461,-0.30259 -2.017386,-0.45392 -0.638929,-0.16813 -1.160063,-0.38701 -1.563595,-0.65603 -0.226988,-0.15133 -0.389887,-0.33943 -0.489194,-0.56523 -0.01103,-0.0251 -0.02165,-0.0511 -0.03111,-0.0771 -0.05675,-0.15606 -0.08475,-0.32863 -0.08475,-0.51779 0,-1.2106 0.99975,-1.8157 3.0006,-1.8157 1.059274,0 1.81659,0.19358 2.270566,0.5803 0.470788,0.38671 0.739484,0.84883 0.80674,1.38686 h 1.91708 c -0.06726,-0.62211 -0.28611,-1.20193 -0.656012,-1.73997 -0.353092,-0.53805 -0.882624,-0.97532 -1.588806,-1.31158 -0.68937,-0.35309 -1.588895,-0.52966 -2.69861,-0.52966 z m -9.558582,0.20164 v 6.91515 l -0.661913,0.64188 v 0.25046 4.80474 h 3.023666 v -5.0552 l -0.470419,-0.61177 v -6.94526 z m -9.432528,1.51369 c 0.941577,0 1.731409,0.21841 2.370335,0.65557 0.655741,0.43717 1.152222,1.01698 1.4885,1.73996 0.336276,0.723 0.504212,1.52213 0.504212,2.39644 0,0.20334 -0.01114,0.40281 -0.03004,0.59945 l -0.948349,0.65101 -0.06437,0.15602 c -0.03207,0.0789 -0.05087,0.14356 -0.07188,0.18978 -0.295554,0.63373 -0.716966,1.12423 -1.289497,1.50593 l -0.0038,0.004 c -9.44e-4,6.5e-4 -0.0029,-6.4e-4 -0.0038,0 -0.532329,0.3633 -1.196057,0.55748 -2.049033,0.55748 -0.836128,0 -1.51372,-0.19217 -2.087655,-0.56523 -0.590495,-0.38382 -1.025062,-0.87729 -1.336163,-1.51323 l -0.0016,-0.002 c -0.02018,-0.0429 -0.03977,-0.10301 -0.07241,-0.17928 l -0.0649,-0.15238 h -0.0011 l 0.0011,-4.5e-4 -0.768119,-0.625 h -0.0032 c -0.02157,-0.20479 -0.03272,-0.41292 -0.03272,-0.625 0,-0.0546 6.68e-4,-0.10926 0.0021,-0.16332 0.02069,-0.81081 0.19679,-1.5553 0.527814,-2.23312 0.35309,-0.72298 0.865831,-1.3028 1.538384,-1.73997 0.672556,-0.43716 1.471321,-0.65556 2.396083,-0.65556 z" />
        <path
           style="font-size:25.2209px;line-height:1.25;font-family:Questrial;-inkscape-font-specification:'Questrial, Normal';fill:#460be6;fill-opacity:1;stroke-width:0.631"
           d="m 77.678479,214.4344 v 4.51445 H 70.34301 v 1.6645 h 7.335469 v 5.27461 l -0.661975,0.61702 v 0.2496 4.80487 c 1.029514,0 2.126891,0 3.021523,0 v -5.05447 l -0.465088,-0.65939 h -0.0031 v -5.23224 l 6.860028,4e-5 v -1.6645 l -6.86003,-4e-5 v -4.51445 z"
           id="path2249"
           sodipodi:nodetypes="ccccccccccccccccccc" />
      </g>
      <a href = "http://www.distruccion.com">
      <rect
         style="display:inline;fill:#302747;stroke-width:0.319084;stroke-dashoffset:4.30866;stop-color:#000000;fill-opacity:0"
         id="rect8114"
         width="156.6877"
         height="50.817631"
         x="24.484755"
         y="23.009766"
         inkscape:label="link"
         transform="matrix(1.0413052,0,0,1.0413052,-1.0113485,0.07632046)" /></a>
    </g>
  </g>
</svg>
