<?xml version="1.0" encoding="UTF-8" standalone="no"?>
<!-- Created with Inkscape (http://www.inkscape.org/) -->

<svg
   width="162"
   height="50"
   viewBox="0 0 42.862499 13.229167"
   version="1.1"
   id="svg2007"
   inkscape:version="1.2.1 (9c6d41e410, 2022-07-14)"
   sodipodi:docname="distruccion.svg"
   xmlns:inkscape="http://www.inkscape.org/namespaces/inkscape"
   xmlns:sodipodi="http://sodipodi.sourceforge.net/DTD/sodipodi-0.dtd"
   xmlns="http://www.w3.org/2000/svg"
   xmlns:svg="http://www.w3.org/2000/svg">
  <sodipodi:namedview
     id="namedview2009"
     pagecolor="#ffffff"
     bordercolor="#666666"
     borderopacity="1.0"
     inkscape:showpageshadow="2"
     inkscape:pageopacity="0.0"
     inkscape:pagecheckerboard="0"
     inkscape:deskcolor="#d1d1d1"
     inkscape:document-units="px"
     showgrid="false"
     inkscape:zoom="4.7572176"
     inkscape:cx="88.707315"
     inkscape:cy="28.588139"
     inkscape:window-width="1920"
     inkscape:window-height="1017"
     inkscape:window-x="-8"
     inkscape:window-y="1192"
     inkscape:window-maximized="1"
     inkscape:current-layer="layer1" />
  <defs
     id="defs2004" />
  <g
     inkscape:label="Capa 1"
     inkscape:groupmode="layer"
     id="layer1">
    <g
       id="g2683"
       inkscape:label="imagotipo"
       transform="translate(-15.874998,-87.841693)">
      <g
         id="g1875"
         inkscape:label="isotipo"
         transform="matrix(0.25000001,0,0,0.25000001,2.645831,77.919817)">
        <path
           d="M 85.725,92.604167 H 52.916666 V 39.687502 H 85.725 Z"
           style="display:inline;fill:#173c9e;fill-opacity:1;fill-rule:nonzero;stroke:none;stroke-width:0.367943"
           id="path1871"
           inkscape:label="bkg" />
        <path
           id="path1873"
           style="fill:#ffffff;fill-opacity:1;fill-rule:nonzero;stroke:none;stroke-width:0.367943"
           d="m 69.320834,49.61351 v 2.798279 l 6.030638,6.006352 -6.030638,5.992399 v 0.676961 l -8.839255,8.786027 8.839255,8.804631 V 79.87988 l -6.030641,-6.006352 6.030641,-5.992399 v -0.676961 l 8.839253,-8.786027 z"
           inkscape:label="DC" />
      </g>
      <g
         id="g2666"
         inkscape:label="logotipo">
        <path
           id="path1912"
           style="font-size:25.2209px;line-height:1.25;font-family:Questrial;-inkscape-font-specification:'Questrial, Normal';fill:#302747;fill-opacity:1;stroke-width:0.167953"
           d="m 49.17426,91.931857 a 0.30059277,0.28938804 0 0 0 -0.30024,0.289388 0.30059277,0.28938804 0 0 0 0.30024,0.289388 0.30059277,0.28938804 0 0 0 0.300757,-0.289388 0.30059277,0.28938804 0 0 0 -0.300757,-0.289388 z m -0.227893,0.807702 v 1.957504 l -0.165882,0.182934 v 0.0708 1.36064 h 0.756543 V 94.88 l -0.117822,-0.184485 v -1.955953 z"
           inkscape:label="i" />
        <path
           style="font-size:25.2209px;line-height:1.25;font-family:Questrial;-inkscape-font-specification:'Questrial, Normal';fill:#302747;fill-opacity:1;stroke-width:0.167953"
           d="m 38.952108,92.73952 -0.473434,2.57e-4 v 1.964739 l -0.157677,0.175055 0.0089,0.07958 c 0.02623,0.235306 0.08452,0.448503 0.178209,0.634458 l 5.25e-4,5.66e-4 c 7.5e-5,1.47e-4 -7.5e-5,2.35e-4 0,5.67e-4 l 9.51e-4,0.0017 9.51e-4,0.0017 c 0.132067,0.247443 0.306359,0.442468 0.519193,0.575288 0.168811,0.09799 0.266957,0.144193 0.518388,0.182418 0.02775,0.004 0.05567,0.007 0.08374,0.009 0.02267,0.0017 0.04557,0.0023 0.06844,0.0025 h 1.35e-4 c 0.0054,7.7e-5 0.0107,5.67e-4 0.0161,5.67e-4 0.0026,0 0.0052,-2.58e-4 0.0078,-2.58e-4 5.01e-4,-3e-6 8.51e-4,0 0.0014,0 0.005,6.2e-5 0.01,2.58e-4 0.01503,2.58e-4 0.01604,0 0.03196,-1.08e-4 0.04764,-5.67e-4 0.01569,-5.66e-4 0.03112,-0.0011 0.04643,-0.0023 0.130859,-0.008 0.248463,-0.03277 0.352928,-0.07467 2.18e-4,-8.8e-5 5.51e-4,-2.83e-4 8.01e-4,-2.83e-4 7.51e-4,-2.49e-4 0.0011,-5.67e-4 0.0019,-8.5e-4 7.51e-4,-2.57e-4 0.0014,-5.66e-4 0.0022,-8.49e-4 0.0078,-0.0032 0.01534,-0.0065 0.02295,-0.0098 2.5e-4,-1.5e-4 7e-4,-2.35e-4 9.51e-4,-5.66e-4 0.07394,-0.03013 0.143492,-0.0674 0.207462,-0.113819 0.05492,-0.03985 0.09773,-0.08761 0.138893,-0.136425 0.02054,-0.02019 0.04049,-0.04087 0.05998,-0.06214 v 0.345199 h 0.75591 V 94.879371 L 41.261468,94.69579 v -1.956212 h -0.473299 v 1.959055 l -0.189748,0.180738 -0.01384,0.04974 c -0.01814,0.06623 -0.0416,0.127602 -0.07179,0.183712 l 0.0015,-0.0017 -0.003,0.0054 -0.0015,0.0028 -5e-4,5.67e-4 -5.01e-4,5.66e-4 -5e-4,0.0011 c -0.07243,0.138506 -0.166489,0.245152 -0.289188,0.326851 -0.120789,0.07576 -0.253519,0.113431 -0.407947,0.113431 -0.224988,0 -0.390646,-0.07754 -0.534089,-0.243397 -5e-5,-6.2e-5 -5.26e-4,6.5e-5 -5.26e-4,0 -0.08715,-0.107002 -0.14633,-0.232615 -0.178745,-0.384989 l -0.01181,-0.05413 -0.133791,-0.172727 z"
           id="path1910"
           inkscape:label="u" />
        <path
           style="font-size:25.2209px;line-height:1.25;font-family:Questrial;-inkscape-font-specification:'Questrial, Normal';fill:#302747;fill-opacity:1;stroke-width:0.167953"
           d="m 55.318981,92.68268 c -0.25659,0 -0.46679,0.05951 -0.630842,0.178543 -0.164051,0.119035 -0.302828,0.264225 -0.416403,0.435632 v -0.557074 h -0.473299 v 1.968744 l -0.165459,0.171308 v 0.07093 1.360639 h 0.755911 v -1.431566 l -0.117153,-0.166398 v -0.459403 c 0,-0.214264 0.04201,-0.402417 0.126144,-0.564306 0.08833,-0.166653 0.204006,-0.295171 0.347023,-0.385635 0.143021,-0.09047 0.302803,-0.135652 0.479472,-0.135652 0.260795,0 0.473099,0.09987 0.637149,0.299852 0.16405,0.195215 0.246245,0.454727 0.246245,0.778506 v 0.461988 l -0.165864,0.171048 v 0.07093 1.360639 h 0.755776 v -1.431566 l -0.116747,-0.166786 v -0.48046 c 0,-0.338066 -0.06092,-0.6214 -0.182906,-0.849949 -0.11778,-0.233315 -0.273502,-0.40714 -0.466993,-0.521415 -0.18929,-0.119043 -0.393318,-0.178549 -0.612054,-0.178549 z"
           id="path1908"
           inkscape:label="n" />
        <path
           style="font-size:25.2209px;line-height:1.25;font-family:Questrial;-inkscape-font-specification:'Questrial, Normal';fill:#302747;fill-opacity:1;stroke-width:0.167953"
           d="m 38.099847,92.68268 c -0.193496,0 -0.361684,0.03815 -0.504701,0.114334 -0.138812,0.07142 -0.254484,0.159575 -0.347024,0.264326 -0.09254,0.104754 -0.164099,0.209442 -0.214575,0.314193 -0.04627,0.09999 -0.07791,0.180846 -0.09474,0.242748 v -0.8785 h -0.473165 v 1.960217 l -0.165863,0.179577 v 0.07067 1.360642 h 0.756447 v -1.431309 l -0.116345,-0.18707 c 0.005,-0.244161 0.04851,-0.473721 0.131509,-0.688459 0.09254,-0.233312 0.222916,-0.421461 0.391173,-0.564306 0.172461,-0.147605 0.376496,-0.221432 0.612055,-0.221432 h 0.05676 V 92.68268 Z"
           id="path1906"
           inkscape:label="r" />
        <path
           style="font-size:25.2209px;line-height:1.25;font-family:Questrial;-inkscape-font-specification:'Questrial, Normal';fill:#302747;fill-opacity:1;stroke-width:0.167953"
           d="m 43.300639,92.682552 v 1.28e-4 c -0.315482,0 -0.588969,0.08333 -0.820323,0.249986 -0.231353,0.161889 -0.412277,0.383248 -0.542679,0.664169 -0.126191,0.276167 -0.189345,0.585803 -0.189345,0.928626 0,0.06006 0.002,0.11916 0.006,0.17738 l -0.123189,0.176734 0.02147,0.08953 c 0.03146,0.130385 0.02899,0.175745 0.128152,0.377236 0.09916,0.201493 0.359127,0.591775 0.593269,0.749567 0.251954,0.164792 0.581262,0.258111 0.836694,0.269752 7.5e-4,2.9e-5 0.0015,-2.5e-5 0.0023,0 0.0096,5.67e-4 0.01916,0.0011 0.02885,0.0014 0.0068,2.21e-4 0.01371,1.45e-4 0.02054,2.58e-4 7.5e-4,1.7e-5 0.0018,-1.4e-5 0.0026,0 7.51e-4,6e-6 0.0015,1.25e-4 0.0023,1.28e-4 0.0031,1.6e-5 0.0061,2.6e-4 0.0093,2.6e-4 0.0015,0 0.0028,-1.27e-4 0.0042,-1.3e-4 0.0067,7.3e-5 0.01326,2.57e-4 0.01999,2.57e-4 0.236116,0 0.449568,-0.04349 0.640505,-0.130611 0.133238,-0.05723 0.257743,-0.132707 0.371715,-0.22828 l 5.01e-4,-5.66e-4 c 0.287276,-0.237636 0.486979,-0.553548 0.587902,-0.932631 l 0.0522,-0.196242 h -0.798123 l -0.03274,0.09121 c -0.06066,0.173685 -0.156092,0.308125 -0.290126,0.418709 l -0.0099,0.01164 c -0.08101,0.06663 -0.171808,0.112938 -0.277109,0.138235 -0.04212,0.01011 -0.08652,0.01691 -0.133521,0.02028 -0.02349,0.0017 -0.04777,0.0025 -0.0726,0.0025 -0.209297,0 -0.381262,-0.05393 -0.529661,-0.160457 -0.152089,-0.109174 -0.265286,-0.249213 -0.346889,-0.429172 l -5e-4,-5.67e-4 c -0.0053,-0.01209 -0.01061,-0.02905 -0.01906,-0.05038 l -0.01664,-0.04199 -0.196593,-0.176347 c -0.0057,-0.05827 -0.0085,-0.117536 -0.0085,-0.177895 0,-0.01546 -4e-5,-0.03094 5.01e-4,-0.04625 0.0054,-0.229608 0.0516,-0.44044 0.138354,-0.63239 0.09254,-0.204741 0.225013,-0.368933 0.397479,-0.492734 0.172461,-0.123798 0.374398,-0.185648 0.605747,-0.185648 0.222942,0 0.412134,0.06407 0.567774,0.192626 0.159844,0.128558 0.275513,0.295356 0.347023,0.500097 h 0.511141 c -0.09254,-0.347587 -0.271365,-0.630921 -0.536369,-0.849949 -0.260798,-0.219028 -0.578268,-0.32853 -0.952638,-0.32853 z"
           id="path1904"
           inkscape:label="c_1" />
        <path
           id="path1902"
           style="font-size:25.2209px;line-height:1.25;font-family:Questrial;-inkscape-font-specification:'Questrial, Normal';fill:#302747;fill-opacity:1;stroke-width:0.167953"
           d="m 52.139453,91.356698 c -0.152162,0.0071 -0.351779,0.148792 -0.486275,0.283187 -0.208198,0.20804 -0.384989,0.599963 -0.384989,0.599963 l 0.104386,0.0615 c 0,0 1.057716,-0.528232 0.955497,-0.81132 -0.03514,-0.09731 -0.101235,-0.134747 -0.181384,-0.133325 -0.0024,4.4e-5 -0.0048,-1.12e-4 -0.0072,0 z m -0.530717,1.326017 c -0.05994,0 -0.1182,0.0029 -0.175183,0.0088 -0.01899,0.002 -0.03767,0.004 -0.05633,0.0067 -0.223993,0.03125 -0.424331,0.10962 -0.600997,0.234611 -0.23556,0.161889 -0.416415,0.383122 -0.542602,0.664042 -0.126194,0.276167 -0.189653,0.585803 -0.189653,0.928626 0,0.0623 0.0023,0.123638 0.0067,0.183968 l -0.123507,0.170015 0.02119,0.0894 c 0.03312,0.137275 0.07776,0.270772 0.134875,0.397908 0.137224,0.3055 0.337429,0.552969 0.593762,0.734322 l 0.0016,0.001 h 5.16e-4 c 0.241131,0.16561 0.543014,0.263792 0.833024,0.263033 0.290011,-8.49e-4 0.536111,-0.03738 0.736906,-0.128674 5e-4,-2.58e-4 0.0011,-7.51e-4 0.0016,-10e-4 5.01e-4,-2.46e-4 0.0013,-2.33e-4 0.0021,-5.17e-4 0.08388,-0.03698 0.164207,-0.08096 0.239778,-0.133842 0.06408,-0.04534 0.124902,-0.09478 0.181901,-0.148311 0.170995,-0.160595 0.309455,-0.357396 0.412378,-0.586528 0.05709,-0.127079 0.101224,-0.260053 0.134359,-0.397391 l 0.02222,-0.08888 -0.07648,-0.169498 c 0.0044,-0.06075 0.0072,-0.122268 0.0072,-0.185002 0,-0.342826 -0.06295,-0.652459 -0.189136,-0.928626 -0.126191,-0.280923 -0.307043,-0.502669 -0.542603,-0.664559 -0.231352,-0.166648 -0.509129,-0.249597 -0.833024,-0.249597 z m 0,0.485759 c 0.235557,0 0.433401,0.06172 0.593246,0.185518 0.164048,0.123801 0.287941,0.288256 0.37207,0.492993 0.08413,0.204744 0.126091,0.430919 0.126091,0.678512 0,0.06169 -0.0024,0.12239 -0.0078,0.181901 l -0.237195,0.172599 0.212907,-5.17e-4 v 5.17e-4 h -0.212907 l -0.0155,0.04393 c -0.0079,0.02197 -0.01281,0.0396 -0.01809,0.05271 -0.05398,0.131161 -0.125976,0.23937 -0.216525,0.330213 -0.03018,0.03028 -0.06229,0.05856 -0.09663,0.08527 h -5.17e-4 l -0.0124,0.01344 c -0.132943,0.1024 -0.298021,0.156062 -0.51108,0.156062 -0.209284,0 -0.37555,-0.05352 -0.51418,-0.15813 -0.14319,-0.108058 -0.248467,-0.246217 -0.322461,-0.425813 v -5.17e-4 c -0.0052,-0.013 -0.01011,-0.03052 -0.01809,-0.05271 l -0.01602,-0.04444 -0.188619,-0.172599 c -0.0054,-0.05947 -0.0083,-0.120262 -0.0083,-0.181901 0,-0.01546 2.67e-4,-0.0312 5.17e-4,-0.04651 0.0049,-0.229611 0.04671,-0.440053 0.125574,-0.632003 0.08413,-0.204737 0.208537,-0.369192 0.372587,-0.492993 0.164053,-0.123798 0.361891,-0.185518 0.593245,-0.185518 z"
           inkscape:label="o" />
        <path
           style="font-size:25.2209px;line-height:1.25;font-family:Questrial;-inkscape-font-specification:'Questrial, Normal';fill:#302747;fill-opacity:1;stroke-width:0.167953"
           d="m 46.870312,92.682422 1.33e-4,2.58e-4 c -0.05915,0 -0.116915,0.0029 -0.173109,0.0088 -0.01874,0.002 -0.03715,0.0042 -0.05556,0.0069 -0.220838,0.03125 -0.418146,0.109363 -0.591658,0.234354 -0.231355,0.161889 -0.412149,0.383248 -0.542543,0.664169 -0.118308,0.258906 -0.181282,0.547182 -0.188675,0.864677 -5e-4,0.02115 -7.5e-4,0.04252 -7.5e-4,0.06395 0,0.06221 0.0023,0.123218 0.0067,0.183452 l -0.124532,0.17092 0.02146,0.08914 c 0.03152,0.131201 0.0753,0.256973 0.128958,0.377755 v 0.0055 l 0.0069,0.01549 c 0.141049,0.30388 0.341004,0.548567 0.592866,0.725151 0.310007,0.187357 0.571536,0.272732 0.862057,0.273497 0.290521,8.49e-4 0.512152,-0.04313 0.704782,-0.132291 2.5e-4,-1.25e-4 5e-4,-2.32e-4 7.5e-4,-5.67e-4 2.5e-4,-1.1e-4 5.01e-4,-1.81e-4 7.51e-4,-2.6e-4 h 1.35e-4 c 0.130201,-0.05696 0.251962,-0.131707 0.363662,-0.225437 l 5.01e-4,-5.66e-4 c 0.286979,-0.237597 0.486506,-0.553806 0.587364,-0.932631 l 0.05139,-0.195852 h -0.798045 l -0.03127,0.09069 c -0.06206,0.177694 -0.158261,0.316662 -0.297506,0.428657 l -0.0015,0.0011 c -0.09744,0.08048 -0.209007,0.13139 -0.34273,0.151799 -0.02229,0.0034 -0.04516,0.0061 -0.06871,0.0078 -0.02354,0.0017 -0.04784,0.0025 -0.07273,0.0025 -0.209161,0 -0.382135,-0.05414 -0.530599,-0.160711 -0.152507,-0.109472 -0.265239,-0.249813 -0.346891,-0.430467 h -5.01e-4 c -0.005,-0.01102 -0.0099,-0.02812 -0.01866,-0.04974 l -0.01704,-0.0416 -0.195517,-0.173118 c -0.0059,-0.05918 -0.0089,-0.119408 -0.0089,-0.180738 0,-0.01546 2.25e-4,-0.03094 5e-4,-0.04625 0.0054,-0.229611 0.0516,-0.44031 0.138352,-0.63226 0.09254,-0.204738 0.225021,-0.368936 0.397482,-0.492737 0.172466,-0.123798 0.374392,-0.185776 0.605747,-0.185776 0.222939,0 0.412137,0.0642 0.567771,0.192754 0.159845,0.128561 0.275648,0.295358 0.347158,0.5001 h 0.511009 c -0.09254,-0.347587 -0.271368,-0.630921 -0.536371,-0.849949 -0.260796,-0.219028 -0.578266,-0.328534 -0.952636,-0.328534 z"
           id="path1900"
           inkscape:label="c_2" />
        <path
           id="path1894"
           style="font-size:25.2209px;line-height:1.25;font-family:Questrial;-inkscape-font-specification:'Questrial, Normal';fill:#302747;fill-opacity:1;stroke-width:0.167953"
           d="m 30.309261,91.931857 a 0.30059277,0.28938804 0 0 0 -0.300757,0.289388 0.30059277,0.28938804 0 0 0 0.300757,0.289388 0.30059277,0.28938804 0 0 0 0.300757,-0.289388 0.30059277,0.28938804 0 0 0 -0.300757,-0.289388 z m -0.235128,0.807702 v 1.958537 l -0.165881,0.181901 v 0.0708 1.36064 h 0.756543 V 94.88 l -0.117822,-0.173633 v -1.966805 z"
           inkscape:label="i" />
        <path
           style="font-size:25.2209px;line-height:1.25;font-family:Questrial;-inkscape-font-specification:'Questrial, Normal';fill:#302747;fill-opacity:1;stroke-width:0.167953"
           d="m 32.465343,92.68268 c -0.408023,0 -0.717223,0.09037 -0.927544,0.271301 -0.206114,0.176176 -0.309181,0.426307 -0.309181,0.750083 0,0.219028 0.05055,0.392859 0.151504,0.521418 0.100954,0.123798 0.231195,0.221321 0.391039,0.292744 0.159844,0.06666 0.328166,0.121348 0.504835,0.164203 0.180876,0.04285 0.351298,0.08816 0.511142,0.13578 0.07643,0.0205 0.146105,0.04534 0.209073,0.07454 l 0.104134,0.109554 c 0.0457,0.04807 0.06347,0.09324 0.06347,0.184096 0,0.09041 -0.01737,0.142477 -0.05274,0.188232 -0.03155,0.04081 -0.06843,0.07255 -0.112588,0.09831 -0.01472,0.0086 -0.03031,0.01654 -0.0467,0.0239 h -0.0093 l -0.0078,0.0083 c -0.07056,0.03103 -0.14407,0.05367 -0.222358,0.06576 -0.08816,0.01362 -0.160772,0.01991 -0.214441,0.01991 -0.186877,0 -0.330195,-0.03233 -0.430089,-0.08462 l -5.25e-4,-5.67e-4 c -0.106749,-0.06081 -0.177862,-0.131016 -0.224774,-0.211356 -0.04893,-0.09622 -0.07792,-0.189616 -0.0879,-0.283702 v -5.67e-4 l -0.01409,-0.130484 h -0.769061 l 0.0047,0.07571 0.005,0.08526 c 0.01352,0.224448 0.08299,0.434307 0.189615,0.628256 0.108799,0.194982 0.33954,0.416435 0.520401,0.518705 l 0.0015,0.0011 h 9.51e-4 c 0.169173,0.09161 0.361578,0.146671 0.576091,0.168465 0.03575,0.0036 0.07212,0.0063 0.109099,0.0081 0.02451,0.0011 0.0497,0.0014 0.07475,0.0017 0.0056,1.59e-4 0.01124,2.32e-4 0.01691,5.66e-4 0.0071,6.3e-5 0.01393,5.67e-4 0.02107,5.67e-4 h 0.02429 0.117419 v -0.0031 c 0.125602,-0.0062 0.242457,-0.02229 0.35011,-0.04884 0.01004,-0.0025 0.02004,-0.005 0.02992,-0.0076 0.107113,-0.02872 0.204971,-0.06783 0.293749,-0.117304 0.07082,-0.03451 0.137521,-0.075 0.198875,-0.122991 0.270292,-0.213078 0.414388,-0.541886 0.414388,-0.931469 0,-0.06888 -0.0048,-0.134511 -0.01369,-0.197404 l -0.0083,-0.05969 -0.302471,-0.17751 c -0.07101,-0.07832 -0.153595,-0.144485 -0.24866,-0.197531 -0.0093,-0.0052 -0.01865,-0.01028 -0.02818,-0.01524 -0.01906,-0.0099 -0.03853,-0.01937 -0.05851,-0.02829 -0.159844,-0.07142 -0.3304,-0.126112 -0.511276,-0.164203 -0.17667,-0.04286 -0.344857,-0.08569 -0.504701,-0.128544 -0.159844,-0.04761 -0.290219,-0.109596 -0.391173,-0.185779 -0.05679,-0.04286 -0.09754,-0.09612 -0.122384,-0.160066 -0.0028,-0.0071 -0.0054,-0.01447 -0.0078,-0.02183 -0.0142,-0.04419 -0.0212,-0.09306 -0.0212,-0.146631 0,-0.342826 0.250113,-0.514182 0.750676,-0.514182 0.265005,0 0.454466,0.05482 0.56804,0.164333 0.11778,0.109511 0.185001,0.240378 0.201827,0.392741 h 0.479606 c -0.01683,-0.176174 -0.07158,-0.340371 -0.164118,-0.492737 -0.08834,-0.152369 -0.220811,-0.276198 -0.39748,-0.371422 -0.172464,-0.09999 -0.397503,-0.149993 -0.675126,-0.149993 z"
           id="path1892"
           inkscape:label="s" />
        <path
           style="font-size:25.2209px;line-height:1.25;font-family:Questrial;-inkscape-font-specification:'Questrial, Normal';fill:#302747;fill-opacity:1;stroke-width:0.167953"
           d="m 28.780532,91.311316 v 2.007112 c -0.0074,-0.01221 -0.01491,-0.0243 -0.02255,-0.03617 -0.114605,-0.178278 -0.260679,-0.32101 -0.438137,-0.42814 -0.185082,-0.114277 -0.407887,-0.171438 -0.668685,-0.171438 -0.307068,0 -0.57649,0.08333 -0.807843,0.249986 -0.227146,0.161889 -0.403737,0.383248 -0.529929,0.664169 -0.126193,0.276167 -0.189212,0.585803 -0.189212,0.928626 0,0.05952 0.0021,0.11799 0.006,0.175701 h -1.34e-4 l -0.123055,0.178413 0.02147,0.08953 c 0.03312,0.137277 0.07775,0.270123 0.134864,0.397263 0.135799,0.302316 0.328961,0.547938 0.574347,0.729282 l 0.0018,0.0017 0.003,0.0017 0.0024,0.0023 c 0.242474,0.169669 0.523487,0.256587 0.833071,0.264972 0.0011,2.9e-5 0.0024,2.3e-4 0.0035,2.58e-4 0.0077,2.83e-4 0.01525,5.66e-4 0.02295,8.5e-4 6.76e-4,1.7e-5 0.0013,-2e-5 0.002,0 0.0069,7.6e-5 0.01364,8.49e-4 0.02053,8.49e-4 0.0029,0 0.0056,-2.58e-4 0.0085,-2.58e-4 3.5e-4,-2e-6 7.25e-4,0 0.0011,0 0.0049,4.3e-5 0.0098,2.58e-4 0.01476,2.58e-4 0.199897,0 0.377333,-0.03376 0.532747,-0.100897 1.65e-4,-7e-5 3.5e-4,-5.9e-5 5.26e-4,-1.3e-4 0.06185,-0.02506 0.121192,-0.05446 0.177671,-0.08927 0.04026,-0.0243 0.07422,-0.05353 0.106147,-0.08436 0.0062,-0.005 0.01254,-0.0099 0.01865,-0.01498 0.04531,-0.03748 0.08784,-0.07796 0.127886,-0.121051 v 0.353596 h 0.755911 v -1.431178 -1.3e-4 h -1.34e-4 L 29.2538,94.692938 v -3.381446 z m -1.066299,1.857122 c 0.235559,0 0.433156,0.06185 0.592999,0.185648 0.164051,0.123801 0.288258,0.287996 0.372386,0.492734 0.08413,0.204744 0.126142,0.431047 0.126142,0.67864 0,0.05758 -0.0028,0.114071 -0.0075,0.169757 l -0.237254,0.184357 -0.0161,0.04418 c -0.008,0.02234 -0.01273,0.04065 -0.01798,0.05374 -0.07394,0.179464 -0.179368,0.318367 -0.322601,0.42646 l -9.51e-4,0.0011 c -2.36e-4,1.84e-4 -7.25e-4,-1.82e-4 -9.5e-4,0 -0.133176,0.102881 -0.299224,0.157871 -0.512618,0.157871 -0.209179,0 -0.378696,-0.05442 -0.52228,-0.160066 -0.147728,-0.108693 -0.256446,-0.248437 -0.334275,-0.428527 l -4.01e-4,-5.66e-4 c -0.005,-0.01215 -0.0099,-0.02917 -0.01811,-0.05077 l -0.01624,-0.04315 h -2.75e-4 l 2.75e-4,-1.28e-4 -0.192165,-0.176991 h -8e-4 c -0.0054,-0.05799 -0.0082,-0.116934 -0.0082,-0.176992 0,-0.01546 1.67e-4,-0.03094 5.25e-4,-0.04625 0.0052,-0.229611 0.04923,-0.440441 0.132046,-0.63239 0.08834,-0.204739 0.21661,-0.368936 0.384866,-0.492737 0.168257,-0.123798 0.368089,-0.185646 0.599442,-0.185646 z"
           id="path1879"
           inkscape:label="d" />
        <path
           style="font-size:25.2209px;line-height:1.25;font-family:Questrial;-inkscape-font-specification:'Questrial, Normal';fill:#460be6;fill-opacity:1;stroke-width:0.167953"
           d="m 34.749483,91.46134 v 1.278433 h -1.835155 v 0.471364 h 1.835155 v 1.493701 l -0.16561,0.174732 v 0.07068 1.360676 c 0.257559,0 0.532096,0 0.755911,0 V 94.87957 L 35.22343,94.692839 h -7.75e-4 v -1.481702 l 1.71621,1.2e-5 v -0.471365 l -1.716211,-1.1e-5 V 91.46134 Z"
           id="path1881"
           sodipodi:nodetypes="ccccccccccccccccccc"
           inkscape:label="t" />
      </g>
    </g>
  </g>
</svg>
